<?xml version="1.0" encoding="UTF-8" standalone="no"?>
<svg
   xmlns:dc="http://purl.org/dc/elements/1.1/"
   xmlns:cc="http://creativecommons.org/ns#"
   xmlns:rdf="http://www.w3.org/1999/02/22-rdf-syntax-ns#"
   xmlns:svg="http://www.w3.org/2000/svg"
   xmlns="http://www.w3.org/2000/svg"
   xmlns:sodipodi="http://sodipodi.sourceforge.net/DTD/sodipodi-0.dtd"
   xmlns:inkscape="http://www.inkscape.org/namespaces/inkscape"
   version="1.1"
   id="Layer_1"
   x="0px"
   y="0px"
   viewBox="0 0 229.24487 123.99648"
   xml:space="preserve"
   sodipodi:docname="quart_mongo_full_logo_color.svg"
   inkscape:version="1.0.1 (c497b03c, 2020-09-10)"
   width="229.24487"
   height="123.99648"
   inkscape:export-filename="/Users/chrisrood/Desktop/quart-mongo-logo/quart_mongo_full_logo_color.png"
   inkscape:export-xdpi="96"
   inkscape:export-ydpi="96"><metadata
   id="metadata881"><rdf:RDF><cc:Work
       rdf:about=""><dc:format>image/svg+xml</dc:format><dc:type
         rdf:resource="http://purl.org/dc/dcmitype/StillImage" /><dc:title /></cc:Work></rdf:RDF></metadata><defs
   id="defs879" /><sodipodi:namedview
   pagecolor="#ffffff"
   bordercolor="#666666"
   borderopacity="1"
   objecttolerance="10"
   gridtolerance="10"
   guidetolerance="10"
   inkscape:pageopacity="0"
   inkscape:pageshadow="2"
   inkscape:window-width="1920"
   inkscape:window-height="956"
   id="namedview877"
   showgrid="false"
   inkscape:zoom="1.472858"
   inkscape:cx="151.66799"
   inkscape:cy="31.584458"
   inkscape:window-x="1090"
   inkscape:window-y="95"
   inkscape:window-maximized="0"
   inkscape:current-layer="layer3"
   inkscape:document-rotation="0"
   inkscape:lockguides="true" />
<path
   style="fill:#b7895b"
   d="m 33.815152,20.747333 -17.058,4.817 c -1.022,0.269 -2.075,-0.316 -2.386,-1.326 L 9.5981516,7.2693329 c -0.269,-1.022 0.316,-2.076 1.3260004,-2.387 l 17.058,-4.81699998 c 1.022,-0.269 2.075,0.316 2.386,1.32599998 l 4.773,16.9690001 c 0.309,1.017 -0.31,2.077 -1.326,2.387 z"
   id="path833"
   inkscape:export-xdpi="96"
   inkscape:export-ydpi="96"
   inkscape:export-filename="/Users/chrisrood/Desktop/quart-wtf/logo.png" />
<path
   style="fill:#c49a6c"
   d="m 12.912152,14.427333 -1.193,-4.286 c -0.619,-2.1650001 0.663,-4.3750001 2.784,-4.9940001 l 10.606,-3.005 c 2.165,-0.619 4.375,0.663 4.994,2.784 l 1.193,4.286 c 0,0 -18.384,5.2150001 -18.384,5.2150001 z"
   id="path835"
   inkscape:export-xdpi="96"
   inkscape:export-ydpi="96"
   inkscape:export-filename="/Users/chrisrood/Desktop/quart-wtf/logo.png" />
<path
   style="fill:#b7895b"
   d="m 22.590152,11.688333 c 0,0 5.612,-7.3800001 1.591,-9.2800001 l 2.607,-1.37 3.359,2.298 1.723,6.187 c 0,0 -9.28,2.1650001 -9.28,2.1650001 z"
   id="path837"
   inkscape:export-xdpi="96"
   inkscape:export-ydpi="96"
   inkscape:export-filename="/Users/chrisrood/Desktop/quart-wtf/logo.png" />
<path
   style="fill:#99d5e8"
   d="m 11.894152,17.927333 22.329,-6.306 13.044,46.188 -22.328,6.306 z"
   id="path839"
   inkscape:export-xdpi="96"
   inkscape:export-ydpi="96"
   inkscape:export-filename="/Users/chrisrood/Desktop/quart-wtf/logo.png" />
<circle
   transform="rotate(-15.770685)"
   style="fill:#99d5e8;stroke-width:1.00004"
   cx="20.29674"
   cy="89.114456"
   id="ellipse841"
   inkscape:export-xdpi="96"
   inkscape:export-ydpi="96"
   inkscape:export-filename="/Users/chrisrood/Desktop/quart-wtf/logo.png"
   r="43.752945" />
<circle
   transform="rotate(-15.770685)"
   style="fill:#bce3f4;stroke-width:1.00004"
   cx="20.29674"
   cy="89.114456"
   id="ellipse843"
   inkscape:export-xdpi="96"
   inkscape:export-ydpi="96"
   inkscape:export-filename="/Users/chrisrood/Desktop/quart-wtf/logo.png"
   r="41.498848" />
<path
   style="fill:#bce3f4"
   d="m 34.478152,15.974333 -20.77,5.877 c -1.679,0.486 -3.403,-0.53 -3.8890004,-2.165 -0.486,-1.679 0.5300004,-3.403 2.1650004,-3.889 l 20.77,-5.8770001 c 1.679,-0.486 3.403,0.5300001 3.889,2.1650001 0.486,1.635 -0.486,3.403 -2.165,3.889 z"
   id="path845"
   inkscape:export-xdpi="96"
   inkscape:export-ydpi="96"
   inkscape:export-filename="/Users/chrisrood/Desktop/quart-wtf/logo.png" />
<path
   style="opacity:0.35;fill:#ffffff;enable-background:new"
   d="m 34.124152,50.487333 c 3.977,4.11 -6.408,4.198 -13.08,10.65 -6.672,6.452 -7.159,16.837 -11.1360004,12.683 -3.977,-4.11 -1.768,-12.683 4.9050004,-19.135 6.717,-6.452 15.334,-8.352 19.311,-4.198 z"
   id="path847"
   inkscape:export-xdpi="96"
   inkscape:export-ydpi="96"
   inkscape:export-filename="/Users/chrisrood/Desktop/quart-wtf/logo.png" />
<path
   style="fill:#bce3f4"
   d="m 15.119152,22.788333 19.054,-5.381 6.378,22.583 -19.054,5.381 z"
   id="path849"
   inkscape:export-xdpi="96"
   inkscape:export-ydpi="96"
   inkscape:export-filename="/Users/chrisrood/Desktop/quart-wtf/logo.png" />
<path
   style="fill:#99d5e8"
   d="m 34.124152,17.388333 c 0,0 0.928,21.742 -5.612,23.996 0,0 21.919,-3.756 31.155,0.53 0,0 -11.313,-4.596 -15.644,-3.756 -4.375,0.795 -9.899,-20.77 -9.899,-20.77 z"
   id="path851"
   inkscape:export-xdpi="96"
   inkscape:export-ydpi="96"
   inkscape:export-filename="/Users/chrisrood/Desktop/quart-wtf/logo.png" />
<linearGradient
   id="SVGID_1_"
   gradientUnits="userSpaceOnUse"
   x1="6.7409"
   y1="129.5471"
   x2="82.659599"
   y2="129.5471"
   gradientTransform="translate(-0.96184836,-46.167667)">
	<stop
   offset="0"
   style="stop-color:#FAEB48"
   id="stop853" />
	<stop
   offset="0.04"
   style="stop-color:#FEE72F"
   id="stop855" />
	<stop
   offset="0.117"
   style="stop-color:#FFD51D"
   id="stop857" />
	<stop
   offset="0.196"
   style="stop-color:#FDCA12"
   id="stop859" />
	<stop
   offset="0.281"
   style="stop-color:#FDC710"
   id="stop861" />
	<stop
   offset="0.668"
   style="stop-color:#F39040"
   id="stop863" />
	<stop
   offset="0.888"
   style="stop-color:#ED683C"
   id="stop865" />
	<stop
   offset="1"
   style="stop-color:#E83E3B"
   id="stop867" />
</linearGradient>
<path
   style="fill:url(#SVGID_1_)"
   d="m 66.206152,49.603333 c 7.778,2.43 11.666,11.799 14.053,20.284 5.701,20.195 -6.054,41.141997 -26.205,46.841997 -20.151,5.7 -41.142,-6.054 -46.8420004,-26.204997 -1.8,-6.358 -1.906,-13.076 -0.309,-19.488 0,0 9.1470004,14.583 25.0560004,7.336 15.908,-7.204 12.903,-35.442 34.247,-28.769 z"
   id="path870"
   inkscape:export-xdpi="96"
   inkscape:export-ydpi="96"
   inkscape:export-filename="/Users/chrisrood/Desktop/quart-wtf/logo.png" />


<g
   inkscape:groupmode="layer"
   id="layer1"
   inkscape:label="Quart Mongo"
   style="display:inline"
   transform="translate(-0.96184836,-46.117667)"><text
     xml:space="preserve"
     style="font-size:44.9102px;line-height:1.25;font-family:'IM FELL English';-inkscape-font-specification:'IM FELL English';stroke-width:1.12275"
     x="119.90627"
     y="99.060265"
     id="text885"
     transform="scale(0.73456319,1.3613533)"
     inkscape:export-xdpi="96"
     inkscape:export-ydpi="96"
     inkscape:export-filename="/Users/chrisrood/Desktop/quart-wtf/logo.png"><tspan
       id="tspan883"
       x="119.90627"
       y="99.060265"
       style="font-size:33.6827px;stroke-width:1.12275"
       sodipodi:role="line">Quart Mongo</tspan></text></g><g
   inkscape:groupmode="layer"
   id="layer3"
   inkscape:label="Mongo Logo"><path
     d="m 64.110196,61.598928 c -2.221792,-2.681647 -4.134999,-5.405208 -4.52587,-5.97087 -0.04114,-0.04188 -0.102878,-0.04188 -0.144021,0 -0.390876,0.565662 -2.304101,3.289223 -4.525893,5.97087 -19.070404,24.742361 3.003564,41.439932 3.003564,41.439932 l 0.185139,0.12566 c 0.164571,2.57702 0.576017,6.28515 0.576017,6.28515 h 0.822885 0.822891 c 0,0 0.411468,-3.68726 0.576034,-6.28515 l 0.185122,-0.14653 c 0.0206,0 22.094512,-16.676701 3.024132,-41.419062 z m -4.608179,41.062762 c 0,0 -0.987456,-0.85894 -1.254882,-1.29895 v -0.0418 l 1.19317,-26.942327 c 0,-0.0838 0.123446,-0.0838 0.123446,0 l 1.193176,26.942327 v 0.0418 c -0.267448,0.44001 -1.25491,1.29895 -1.25491,1.29895 z"
     fill="#ffffff"
     id="path871"
     style="stroke-width:0.206496" /><circle
     id="path2075"
     style="fill:#000000;stroke:#99d5e8"
     cx="61.784641"
     cy="86.226913"
     r="0.33967063" /></g></svg>
